<svg xmlns="http://www.w3.org/2000/svg" width="512" height="512" viewBox="0 0 512 512">
  <defs>
    <linearGradient id="bg" x1="0" y1="0" x2="0" y2="1">
      <stop offset="0%" stop-color="#1e1e2e"/>
      <stop offset="100%" stop-color="#11111b"/>
    </linearGradient>
    <linearGradient id="mic" x1="0" y1="0" x2="0" y2="1">
      <stop offset="0%" stop-color="#89b4fa"/>
      <stop offset="100%" stop-color="#74c7ec"/>
    </linearGradient>
  </defs>
  <rect width="512" height="512" rx="102" fill="url(#bg)"/>
  <g transform="translate(128, 80) scale(10.67)">
    <path fill="url(#mic)" d="M12 2a4 4 0 0 0-4 4v5a4 4 0 0 0 8 0V6a4 4 0 0 0-4-4z"/>
    <path fill="url(#mic)" d="M19 11a1 1 0 1 0-2 0 5 5 0 0 1-10 0 1 1 0 1 0-2 0 7 7 0 0 0 6 6.93V20H8.5a1 1 0 1 0 0 2h7a1 1 0 1 0 0-2H13v-2.07A7 7 0 0 0 19 11z"/>
  </g>
</svg>
